<svg xmlns="http://www.w3.org/2000/svg" xmlns:xlink="http://www.w3.org/1999/xlink" width="27" height="24" viewBox="0 0 27 24">
  <defs>
    <clipPath id="clip-Anilox">
      <rect width="27" height="24"/>
    </clipPath>
  </defs>
  <g id="Anilox" clip-path="url(#clip-Anilox)">
    <g id="Grupo_13240" data-name="Grupo 13240" transform="translate(-0.195 2.288)">
      <g id="Grupo_12795" data-name="Grupo 12795" transform="translate(4.807 10.05)">
        <g id="Grupo_12815" data-name="Grupo 12815">
          <path id="Trazado_5123" data-name="Trazado 5123" d="M21.845,4.031h-.381V3.885a.549.549,0,0,0-.548-.548h-.441A4.473,4.473,0,0,0,16.486,0L4.205,0H4.128V.009A4.476,4.476,0,0,0,0,4.687,4.487,4.487,0,0,0,3.993,9.349v.023h.222l12.271,0a4.483,4.483,0,0,0,4.041-3.488h.387a.55.55,0,0,0,.548-.548V5.187h.377a.549.549,0,0,0,.548-.548V4.579a.548.548,0,0,0-.544-.548M4.095,7.685A2.6,2.6,0,0,1,1.874,5.849H1.665a.648.648,0,0,1-.615-.457A.649.649,0,0,1,.4,4.75a.659.659,0,0,1,.643-.687A.648.648,0,0,1,1.663,3.6h.189A2.592,2.592,0,0,1,4.166,1.681,2.8,2.8,0,0,1,6.618,4.687a2.889,2.889,0,0,1-2.524,3M16.427,7.7H7.4a5,5,0,0,0,0-6.022h9a2.838,2.838,0,0,1,2.565,3.063A2.8,2.8,0,0,1,16.427,7.7" fill="#2b2a2a" stroke="#2b2a2a" stroke-width="0.5"/>
          <path id="Trazado_5124" data-name="Trazado 5124" d="M3.225,3.061a.817.817,0,0,0-.683.462h-.76a.367.367,0,0,0-.365.365v.1h-.25A.367.367,0,0,0,.8,4.351v.04a.367.367,0,0,0,.365.365h.251v.092a.367.367,0,0,0,.365.365h.81a.782.782,0,0,0,.634.385c.489,0,.886-.568.886-1.27s-.4-1.267-.887-1.267" transform="translate(0.093 0.357)" fill="#2b2a2a" stroke="#2b2a2a" stroke-width="0.5"/>
        </g>
      </g>
      <g id="Grupo_12797" data-name="Grupo 12797">
        <g id="Grupo_12814" data-name="Grupo 12814">
          <path id="Trazado_5123-2" data-name="Trazado 5123" d="M21.845,4.031h-.381V3.885a.549.549,0,0,0-.548-.548h-.441A4.473,4.473,0,0,0,16.486,0L4.205,0H4.128V.009A4.476,4.476,0,0,0,0,4.687,4.487,4.487,0,0,0,3.993,9.349v.023h.222l12.271,0a4.483,4.483,0,0,0,4.041-3.488h.387a.55.55,0,0,0,.548-.548V5.187h.377a.549.549,0,0,0,.548-.548V4.579a.548.548,0,0,0-.544-.548M4.095,7.685A2.6,2.6,0,0,1,1.874,5.849H1.665a.648.648,0,0,1-.615-.457A.649.649,0,0,1,.4,4.75a.659.659,0,0,1,.643-.687A.648.648,0,0,1,1.663,3.6h.189A2.592,2.592,0,0,1,4.166,1.681,2.8,2.8,0,0,1,6.618,4.687a2.889,2.889,0,0,1-2.524,3M16.427,7.7H7.4a5,5,0,0,0,0-6.022h9a2.838,2.838,0,0,1,2.565,3.063A2.8,2.8,0,0,1,16.427,7.7" fill="#2b2a2a" stroke="#2b2a2a" stroke-width="0.5"/>
          <path id="Trazado_5124-2" data-name="Trazado 5124" d="M3.225,3.061a.817.817,0,0,0-.683.462h-.76a.367.367,0,0,0-.365.365v.1h-.25A.367.367,0,0,0,.8,4.351v.04a.367.367,0,0,0,.365.365h.251v.092a.367.367,0,0,0,.365.365h.81a.782.782,0,0,0,.634.385c.489,0,.886-.568.886-1.27s-.4-1.267-.887-1.267" transform="translate(0.093 0.357)" fill="#2b2a2a" stroke="#2b2a2a" stroke-width="0.5"/>
        </g>
      </g>
    </g>
  </g>
</svg>
