<svg xmlns="http://www.w3.org/2000/svg" xmlns:xlink="http://www.w3.org/1999/xlink" width="24" height="24" viewBox="0 0 24 24">
  <defs>
    <clipPath id="clip-Box_red">
      <rect width="24" height="24"/>
    </clipPath>
  </defs>
  <g id="Box_red" data-name="Box red" clip-path="url(#clip-Box_red)">
    <g id="Group_13488" data-name="Group 13488">
      <path id="Path_5176" data-name="Path 5176" d="M0,0H24V24H0Z" fill="none"/>
      <path id="Path_5177" data-name="Path 5177" d="M3,10H2V4a1,1,0,0,1,.992-1H21.008A.99.99,0,0,1,22,4v6H21V20a1,1,0,0,1-.993,1H3.993A1,1,0,0,1,3,20Zm16,0H5v9H19ZM4,5V8H20V5Zm5,7h6v2H9Z" fill="#d6001c"/>
    </g>
  </g>
</svg>
