<svg xmlns="http://www.w3.org/2000/svg" xmlns:xlink="http://www.w3.org/1999/xlink" width="103" height="105" viewBox="0 0 103 105">
  <defs>
    <filter id="Trazado_5178" x="-5.549" y="-1.512" width="114.195" height="86.5" filterUnits="userSpaceOnUse">
      <feOffset dy="3" input="SourceAlpha"/>
      <feGaussianBlur stdDeviation="3" result="blur"/>
      <feFlood flood-opacity="0.161"/>
      <feComposite operator="in" in2="blur"/>
      <feComposite in="SourceGraphic"/>
    </filter>
    <filter id="Rectángulo_782" x="-5.451" y="-2" width="115" height="115" filterUnits="userSpaceOnUse">
      <feOffset dy="3" input="SourceAlpha"/>
      <feGaussianBlur stdDeviation="3" result="blur-2"/>
      <feFlood flood-opacity="0.161"/>
      <feComposite operator="in" in2="blur-2"/>
      <feComposite in="SourceGraphic"/>
    </filter>
    <clipPath id="clip-path">
      <g transform="matrix(1, 0, 0, 1, 0, 0)" filter="url(#Trazado_5178)">
        <path id="Trazado_5178-2" data-name="Trazado 5178" d="M12.439,0H83.756C90.626,0,96.2,6.217,96.2,13.885v40.73c0,7.669-5.569,13.885-12.439,13.885H12.439C5.569,68.5,0,62.283,0,54.615V13.885C0,6.217,5.569,0,12.439,0Z" transform="translate(1752.9 924.49)" fill="none"/>
      </g>
    </clipPath>
    <clipPath id="clip-Chatbot">
      <rect width="103" height="105"/>
    </clipPath>
  </defs>
  <g id="Chatbot" clip-path="url(#clip-Chatbot)">
    <g id="Grupo_13581" data-name="Grupo 13581" transform="translate(-79.451 -36)">
      <g id="Grupo_7897" data-name="Grupo 7897" transform="translate(-1538 -884)">
        <g transform="matrix(1, 0, 0, 1, 1617.45, 920)" filter="url(#Rectángulo_782)">
          <g id="Rectángulo_782-2" data-name="Rectángulo 782" transform="translate(3.55 4)" fill="#fff" stroke="#54585a" stroke-width="3">
            <rect width="97" height="97" rx="15" stroke="none"/>
            <rect x="1.5" y="1.5" width="94" height="94" rx="13.5" fill="none"/>
          </g>
        </g>
        <g id="Grupo_7888" data-name="Grupo 7888" transform="translate(1630.892 997.875)">
          <path id="Trazado_2228" data-name="Trazado 2228" d="M450.384,316.069a.325.325,0,0,1,.386-.256.334.334,0,0,1,.25.4l-1.88,8.813a.325.325,0,0,1-.317.263h-8.477a.327.327,0,0,1-.32-.277l-1.876-8.8a.334.334,0,0,1,.25-.4.325.325,0,0,1,.386.256l1.821,8.549h7.955Z" transform="translate(-434.055 -312.724)" fill="#cecfcf" stroke="#cecfcf" stroke-width="0.5" fill-rule="evenodd"/>
          <path id="Trazado_2229" data-name="Trazado 2229" d="M439.534,319.244c.088,0,.261-.2.436-.4.262-.3.524-.6.874-.6s.612.3.874.6c.174.2.348.4.434.4s.261-.2.435-.4c.262-.3.525-.6.874-.6s.612.3.874.6c.174.2.348.4.435.4s.261-.2.435-.4c.262-.3.524-.6.874-.6s.612.3.874.6c.174.2.348.4.435.4s.26-.2.434-.4c.261-.3.525-.6.874-.6s.612.3.875.6c.174.2.348.4.434.4v.609c-.35,0-.612-.3-.874-.6-.174-.2-.348-.4-.435-.4s-.261.2-.435.4c-.261.3-.525.6-.873.6s-.612-.3-.875-.6c-.174-.2-.348-.4-.434-.4s-.261.2-.434.4c-.262.3-.526.6-.875.6s-.612-.3-.875-.6c-.174-.2-.348-.4-.434-.4s-.26.2-.434.4c-.263.3-.526.6-.875.6s-.612-.3-.874-.6c-.174-.2-.348-.4-.434-.4s-.261.2-.434.4c-.263.3-.525.6-.875.6Z" transform="translate(-434.12 -313.26)" fill="#cecfcf" stroke="#cecfcf" stroke-width="0.5" fill-rule="evenodd"/>
          <g id="Grupo_7886" data-name="Grupo 7886" transform="translate(6.577 7.903)">
            <path id="Trazado_2230" data-name="Trazado 2230" d="M447.988,327.307v-.677h-1.464V326.2l1.245-1.73h.951v1.664h.392v.5h-.392v.677Zm0-1.174V325.5c0-.171.01-.345.02-.529h-.015c-.107.183-.2.349-.311.529l-.437.62,0,.009Z" transform="translate(-445.459 -324.388)" fill="#cecfcf"/>
            <path id="Trazado_2231" data-name="Trazado 2231" d="M454.248,325.852c0,.893-.418,1.514-1.271,1.514-.868,0-1.25-.674-1.255-1.5,0-.844.408-1.5,1.276-1.5C453.893,324.365,454.248,325.057,454.248,325.852Zm-1.741.018c0,.665.186.983.486.983s.47-.331.47-.992c0-.643-.161-.982-.476-.982C452.7,324.878,452.507,325.191,452.507,325.87Z" transform="translate(-448.086 -324.446)" fill="#cecfcf"/>
          </g>
          <path id="Trazado_2232" data-name="Trazado 2232" d="M456.358,322.874a.6.6,0,0,1,.429.182h0a.636.636,0,0,1,0,.881h0a.6.6,0,0,1-.86,0h0a.633.633,0,0,1,0-.881h0a.6.6,0,0,1,.43-.182Zm.262.354a.365.365,0,0,0-.525,0h0a.391.391,0,0,0,0,.539h0a.365.365,0,0,0,.525,0h0a.39.39,0,0,0,0-.539Z" transform="translate(-442.499 -315.939)" fill="#cecfcf" fill-rule="evenodd"/>
          <g id="Grupo_7887" data-name="Grupo 7887" transform="translate(24.271 6.352)">
            <path id="Trazado_2233" data-name="Trazado 2233" d="M467.018,324.045c-.215.1-.435.085-.492-.04s.071-.31.286-.413l10.07-4.821c.216-.1.436-.085.493.04s-.072.31-.287.413Z" transform="translate(-466.513 -318.705)" fill="#cecfcf" stroke="#cecfcf" stroke-width="0.5" fill-rule="evenodd"/>
            <path id="Trazado_2234" data-name="Trazado 2234" d="M476.883,324.045c.216.1.436.085.493-.04s-.072-.31-.287-.413l-10.07-4.821c-.216-.1-.435-.085-.492.04s.07.31.286.413Z" transform="translate(-466.513 -318.705)" fill="#cecfcf" stroke="#cecfcf" stroke-width="0.5" fill-rule="evenodd"/>
          </g>
          <path id="Trazado_2235" data-name="Trazado 2235" d="M540.143,312.6a5.721,5.721,0,0,1,4.111,1.748,6.081,6.081,0,0,1,0,8.44,5.708,5.708,0,0,1-8.222,0,6.08,6.08,0,0,1,0-8.44,5.721,5.721,0,0,1,4.111-1.748Zm3.6,2.27a5,5,0,0,0-7.2,0,5.328,5.328,0,0,0,0,7.4,5,5,0,0,0,7.2,0,5.329,5.329,0,0,0,0-7.4Z" transform="translate(-473.829 -311.979)" fill="#cecfcf" stroke="#cecfcf" stroke-width="0.5" fill-rule="evenodd"/>
          <path id="Trazado_2236" data-name="Trazado 2236" d="M542.948,323.012h.6V321.1a2.033,2.033,0,0,0,.483.043,1.906,1.906,0,0,0,1.421-.524,1.426,1.426,0,0,0,.359-1.02,1.323,1.323,0,0,0-.407-1,1.877,1.877,0,0,0-1.3-.4,6.786,6.786,0,0,0-1.152.091v4.717Zm.6-4.271a2.453,2.453,0,0,1,.566-.049c.655,0,1.1.3,1.1.942s-.442,1.013-1.165,1.013a1.98,1.98,0,0,1-.5-.049Z" transform="translate(-477.448 -314.014)" fill="#cecfcf" stroke="#cecfcf" stroke-width="0.5" fill-rule="evenodd"/>
          <path id="Trazado_2237" data-name="Trazado 2237" d="M476.089,312.484l5.308,10.9.248.509H469.922l.248-.509,5.307-10.9.306-.628.306.628Zm4.448,10.7-4.754-9.76-4.754,9.76Z" transform="translate(-446.074 -311.856)" fill="#cecfcf" stroke="#cecfcf" stroke-width="0.5" fill-rule="evenodd"/>
          <g id="Grupo_13472" data-name="Grupo 13472" transform="translate(1 -3.314)">
            <path id="Trazado_2238" data-name="Trazado 2238" d="M512.744,330.093a1.1,1.1,0,1,0-1.069-1.1A1.084,1.084,0,0,0,512.744,330.093Z" transform="translate(-464.051 -316.476)" fill="#cecfcf" stroke="#cecfcf" stroke-width="0.5" fill-rule="evenodd"/>
            <path id="Trazado_2241" data-name="Trazado 2241" d="M504.653,324.166h9.4l.04.318.624,5.016.05.408H500.17v-.363A6.8,6.8,0,0,1,501,325.9a3.979,3.979,0,0,1,3.649-1.735Zm8.778.726h-8.778a3.324,3.324,0,0,0-3.058,1.4,5.715,5.715,0,0,0-.712,2.885h13.082Z" transform="translate(-458.775 -314.56)" fill="#cecfcf" stroke="#cecfcf" stroke-width="0.5" fill-rule="evenodd"/>
            <path id="Trazado_2242" data-name="Trazado 2242" d="M505.076,318.226a.324.324,0,0,1,0-.647h9.172a.318.318,0,0,1,.314.293l.916,7.676a.321.321,0,0,1-.274.36.317.317,0,0,1-.351-.282l-.884-7.4Z" transform="translate(-459.836 -313.113)" fill="#cecfcf" stroke="#cecfcf" stroke-width="0.5" fill-rule="evenodd"/>
          </g>
        </g>
        <line id="Línea_44" data-name="Línea 44" x2="89" transform="translate(1626 991)" fill="none" stroke="#cecfcf" stroke-linecap="round" stroke-width="3" stroke-dasharray="8"/>
      </g>
      <g id="Enmascarar_grupo_67" data-name="Enmascarar grupo 67" transform="translate(-1670 -884)" clip-path="url(#clip-path)">
        <g id="Grupo_7907" data-name="Grupo 7907" transform="translate(-0.684 1)">
          <g id="Grupo_7905" data-name="Grupo 7905" transform="translate(1795.974 948.546)">
            <path id="Trazado_3" data-name="Trazado 3" d="M1042.553,183.7v12.773s1.25,12.182-12.068,11.912-30.31,0-30.31,0" transform="translate(-986.874 -183.701)" fill="none" stroke="#54585a" stroke-width="5"/>
            <rect id="Rectángulo_8" data-name="Rectángulo 8" width="16.877" height="9.965" rx="3" transform="translate(0 19.326)" fill="#54585a"/>
          </g>
          <g id="Grupo_7906" data-name="Grupo 7906" transform="translate(1783 941.27)">
            <path id="Sustracción_4" data-name="Sustracción 4" d="M4.81,0A4.81,4.81,0,1,1,0,4.81,4.81,4.81,0,0,1,4.81,0Z" transform="translate(32.816)" fill="#54585a"/>
            <path id="Sustracción_5" data-name="Sustracción 5" d="M4.81,0A4.81,4.81,0,1,1,0,4.81,4.81,4.81,0,0,1,4.81,0Z" transform="translate(0)" fill="#54585a"/>
          </g>
          <path id="Trazado_2246" data-name="Trazado 2246" d="M1322.506,476.682a10.614,10.614,0,0,0,13.126,0" transform="translate(475.375 479.12)" fill="none" stroke="#54585a" stroke-linecap="round" stroke-width="5"/>
        </g>
      </g>
    </g>
  </g>
</svg>
