<svg xmlns="http://www.w3.org/2000/svg" xmlns:xlink="http://www.w3.org/1999/xlink" width="24" height="21" viewBox="0 0 24 21">
  <defs>
    <clipPath id="clip-Comentario">
      <rect width="24" height="21"/>
    </clipPath>
  </defs>
  <g id="Comentario" clip-path="url(#clip-Comentario)">
    <path id="comment-regular" d="M9.935,32c-5.523,0-10,3.636-10,8.124A7.18,7.18,0,0,0,2,45.057,9.911,9.911,0,0,1,.19,47.916.938.938,0,0,0,.874,49.5a9.477,9.477,0,0,0,5.433-1.808,12.063,12.063,0,0,0,3.628.559c5.523,0,10-3.636,10-8.124S15.458,32,9.935,32Zm0,14.373A10.149,10.149,0,0,1,6.873,45.9l-.887-.281-.762.539a8.4,8.4,0,0,1-2.246,1.133,9.8,9.8,0,0,0,.777-1.57l.414-1.1-.8-.851a5.372,5.372,0,0,1-1.554-3.648c0-3.445,3.644-6.249,8.124-6.249s8.124,2.8,8.124,6.249S14.415,46.373,9.935,46.373Z" transform="translate(2.066 -30)" fill="#2b2a2a" stroke="#2b2a2b" stroke-width="0.7"/>
  </g>
</svg>
