<svg xmlns="http://www.w3.org/2000/svg" width="15.847" height="15.847" viewBox="0 0 15.847 15.847">
  <path id="download-solid" d="M6.685,0H9.162A.741.741,0,0,1,9.9.743v5.2h2.714A.618.618,0,0,1,13.055,7L8.347,11.709a.6.6,0,0,1-.845,0L2.789,7a.618.618,0,0,1,.436-1.055H5.943V.743A.741.741,0,0,1,6.685,0Zm9.162,11.638V15.1a.741.741,0,0,1-.743.743H.743A.741.741,0,0,1,0,15.1V11.638a.741.741,0,0,1,.743-.743H5.283L6.8,12.411a1.586,1.586,0,0,0,2.247,0l1.517-1.517H15.1A.741.741,0,0,1,15.847,11.638Zm-3.838,2.724a.619.619,0,1,0-.619.619A.621.621,0,0,0,12.009,14.361Zm1.981,0a.619.619,0,1,0-.619.619A.621.621,0,0,0,13.99,14.361Z" fill="#fff"/>
</svg>
