<svg xmlns="http://www.w3.org/2000/svg" xmlns:xlink="http://www.w3.org/1999/xlink" width="21" height="18" viewBox="0 0 21 18">
  <defs>
    <clipPath id="clip-Editar">
      <rect width="21" height="18"/>
    </clipPath>
  </defs>
  <g id="Editar" clip-path="url(#clip-Editar)">
    <path id="edit-solid" d="M14.382,3.069,17.6,6.291a.349.349,0,0,1,0,.493l-7.8,7.8-3.315.368a.7.7,0,0,1-.768-.768l.368-3.315,7.8-7.8a.349.349,0,0,1,.493,0Zm5.787-.818L18.426.507a1.4,1.4,0,0,0-1.972,0L15.19,1.772a.349.349,0,0,0,0,.493l3.222,3.222a.349.349,0,0,0,.493,0L20.17,4.223A1.4,1.4,0,0,0,20.17,2.251ZM13.718,12.464V16.1H2.286V4.669H10.5a.439.439,0,0,0,.3-.125l1.429-1.429a.429.429,0,0,0-.3-.732H1.715A1.715,1.715,0,0,0,0,4.1V16.672a1.715,1.715,0,0,0,1.715,1.715H14.29A1.715,1.715,0,0,0,16,16.672V11.035a.429.429,0,0,0-.732-.3L13.843,12.16A.439.439,0,0,0,13.718,12.464Z" transform="translate(0 -0.1)" fill="#2b2a2a"/>
  </g>
</svg>
