<svg xmlns="http://www.w3.org/2000/svg" xmlns:xlink="http://www.w3.org/1999/xlink" width="24" height="24" viewBox="0 0 24 24">
  <defs>
    <clipPath id="clip-Favicon">
      <rect width="24" height="24"/>
    </clipPath>
  </defs>
  <g id="Favicon" clip-path="url(#clip-Favicon)">
    <g id="Grupo_8666" data-name="Grupo 8666" transform="translate(8664.508 -16518.492)">
      <circle id="Elipse_56" data-name="Elipse 56" cx="11" cy="11" r="11" transform="translate(-8663.508 16519.492)" fill="#d6001c"/>
      <g id="Grupo_8067" data-name="Grupo 8067" transform="translate(-8660.128 16525.121)">
        <path id="Trazado_2268" data-name="Trazado 2268" d="M232.738,21.531V20.477a.1.1,0,0,0-.094-.094h-1.339a.094.094,0,0,1-.094-.094V18.444a.094.094,0,0,0-.094-.094h-1.063a.1.1,0,0,0-.094.094v1.845a.093.093,0,0,1-.094.094h-1.283a.1.1,0,0,0-.094.094v1.061a.094.094,0,0,0,.094.094h1.283a.093.093,0,0,1,.094.094V27.8a.094.094,0,0,0,.095.094l1.065-.01a.094.094,0,0,0,.093-.094v-6.07a.094.094,0,0,1,.092-.094h1.337a.1.1,0,0,0,.094-.094" transform="translate(-224.056 -17.086)" fill="#fff"/>
        <path id="Trazado_2269" data-name="Trazado 2269" d="M8.123,2.861A2.9,2.9,0,0,0,5.212,5.653,2.326,2.326,0,0,0,5.2,6.1a.063.063,0,0,1-.062.065H4.414a.094.094,0,0,0-.094.094V7.3a.094.094,0,0,0,.093.094l.734.009a.063.063,0,0,1,.062.063v6.119a.093.093,0,0,0,.094.094H6.347a.094.094,0,0,0,.094-.094V7.482A.062.062,0,0,1,6.5,7.419H8.128a.1.1,0,0,0,.094-.094V6.265a.094.094,0,0,0-.094-.1h-1.6A.063.063,0,0,1,6.464,6.1v-.6A1.806,1.806,0,0,1,8.13,4.12a.093.093,0,0,0,.089-.093c0-.35.009-.676,0-1.076a.093.093,0,0,0-.1-.092" transform="translate(-4.32 -2.858)" fill="#fff"/>
        <path id="Trazado_2270" data-name="Trazado 2270" d="M341.628,50.778l-2.28-3.612a.064.064,0,0,1,0-.068l2.278-3.545a.094.094,0,0,0-.082-.144h-1.227a.094.094,0,0,0-.082.043l-1.56,2.452a.064.064,0,0,1-.107,0L337,43.453a.093.093,0,0,0-.082-.043H335.7a.094.094,0,0,0-.082.144l2.278,3.545a.064.064,0,0,1,0,.068l-2.28,3.612a.094.094,0,0,0,.082.144h1.242a.093.093,0,0,0,.082-.044l1.55-2.465a.064.064,0,0,1,.107,0l1.55,2.465a.093.093,0,0,0,.082.044h1.242a.095.095,0,0,0,.082-.144" transform="translate(-326.386 -40.101)" fill="#fff"/>
      </g>
    </g>
  </g>
</svg>
