<?xml version="1.0" encoding="utf-8"?>
<!-- Generator: Adobe Illustrator 26.0.2, SVG Export Plug-In . SVG Version: 6.00 Build 0)  -->
<svg version="1.1" id="Layer_1" xmlns="http://www.w3.org/2000/svg" xmlns:xlink="http://www.w3.org/1999/xlink" x="0px" y="0px"
	 viewBox="0 0 317.6 254.3" style="enable-background:new 0 0 317.6 254.3;" xml:space="preserve">
<style type="text/css">
	.st0{fill:#A9ABAC;}
	.st1{fill:none;stroke:#A9ABAC;stroke-width:17;stroke-linecap:round;stroke-miterlimit:10;}
</style>
<g>
	<path class="st0" d="M253.6,137.2h-20v-20c0-11-9-20-20-20h-66.7l-26.7-26.7H53.5c-11,0-20,9-20,20v120.1c0,11,9,20,20,20h166.8
		c6.9,0,13.3-3.5,17-9.4l33.3-53.4C278.9,154.5,269.3,137.2,253.6,137.2z M53.5,93c0-1.4,1.1-2.5,2.5-2.5h55.9l26.7,26.7h72.5
		c1.4,0,2.5,1.1,2.5,2.5v17.5H96.9c-7,0-13.5,3.7-17.1,9.7l-26.2,43.4V93z M220.3,210.6H63.5l32.2-53.4h157.9L220.3,210.6z"/>
	<line class="st1" x1="207.2" y1="75.4" x2="207.2" y2="49.9"/>
	<line class="st1" x1="239.9" y1="84.2" x2="258.3" y2="66.6"/>
	<line class="st1" x1="258.3" y1="110.3" x2="283.8" y2="110.9"/>
</g>
</svg>
