<svg id="eye-solid" xmlns="http://www.w3.org/2000/svg" width="25.201" height="18.9" viewBox="0 0 25.201 18.9">
  <path id="image-regular" d="M22.838,64H2.363A2.363,2.363,0,0,0,0,66.363V80.538A2.363,2.363,0,0,0,2.363,82.9H22.838A2.363,2.363,0,0,0,25.2,80.538V66.363A2.363,2.363,0,0,0,22.838,64Zm-.3,16.538H2.658a.3.3,0,0,1-.3-.3V66.658a.3.3,0,0,1,.3-.3H22.543a.3.3,0,0,1,.3.3V80.243A.3.3,0,0,1,22.543,80.538ZM6.3,68.331A1.969,1.969,0,1,0,8.269,70.3,1.969,1.969,0,0,0,6.3,68.331ZM4.725,78.175h15.75V74.238L16.168,69.93a.591.591,0,0,0-.835,0L9.45,75.813,7.505,73.868a.591.591,0,0,0-.835,0L4.725,75.813Z" transform="translate(0 -64)" fill="#2b2a2a"/>
</svg>
