<svg xmlns="http://www.w3.org/2000/svg" xmlns:xlink="http://www.w3.org/1999/xlink" width="25" height="25" viewBox="0 0 25 25">
  <defs>
    <clipPath id="clip-Hearth">
      <rect width="25" height="25"/>
    </clipPath>
  </defs>
  <g id="Hearth" clip-path="url(#clip-Hearth)">
    <g id="Group_13489" data-name="Group 13489">
      <path id="Path_4772" data-name="Path 4772" d="M0,0H25V25H0Z" fill="none"/>
      <path id="Path_4773" data-name="Path 4773" d="M20.054,4.852a6.364,6.364,0,0,1,1.723,5.671A3.763,3.763,0,0,1,23.4,16.8l-5.689,5.7-3.156-3.162-3.11,3.146L2.588,13.533a6.37,6.37,0,0,1,.248-8.681,6.226,6.226,0,0,1,8.61-.24A6.223,6.223,0,0,1,20.054,4.852Zm-6.56,8.125a1.644,1.644,0,0,0,0,2.327l4.217,4.226L21.929,15.3a1.644,1.644,0,0,0,0-2.327,1.674,1.674,0,0,0-2.369,0l-1.851,1.849-1.47-1.471-.379-.379a1.674,1.674,0,0,0-2.367,0ZM4.313,6.343a4.244,4.244,0,0,0-.2,5.746L11.444,19.5l1.628-1.646L12.022,16.8a3.758,3.758,0,0,1,5.31-5.32l.379.379.379-.379a3.757,3.757,0,0,1,1.53-.93,4.245,4.245,0,0,0-1.045-4.209,4.148,4.148,0,0,0-5.734-.161L11.447,7.443l-1.4-1.262a4.149,4.149,0,0,0-5.738.162Z" transform="translate(0)" fill="#d6001c"/>
    </g>
  </g>
</svg>
