<svg xmlns="http://www.w3.org/2000/svg" xmlns:xlink="http://www.w3.org/1999/xlink" width="18" height="24" viewBox="0 0 18 24">
  <defs>
    <clipPath id="clip-homologos">
      <rect width="18" height="24"/>
    </clipPath>
  </defs>
  <g id="homologos" clip-path="url(#clip-homologos)">
    <g id="Grupo_13241" data-name="Grupo 13241" transform="translate(-3)">
      <path id="Trazado_5150" data-name="Trazado 5150" d="M0,0H24V24H0Z" fill="none"/>
      <path id="Trazado_5151" data-name="Trazado 5151" d="M7,6V3A1,1,0,0,1,8,2H20a1,1,0,0,1,1,1V17a1,1,0,0,1-1,1H17v3a1,1,0,0,1-1.007,1H4.007A1,1,0,0,1,3,21L3,7A1,1,0,0,1,4.009,6ZM5,8,5,20H15V8ZM9,6h8V16h2V4H9ZM7,11h6v2H7Zm0,4h6v2H7Z" fill="#2b2a2a"/>
    </g>
  </g>
</svg>
