<svg xmlns="http://www.w3.org/2000/svg" width="60.986" height="60.986" viewBox="0 0 60.986 60.986">
  <g id="Grupo_8674" data-name="Grupo 8674" transform="translate(-930 -425)">
    <path id="check-circle-regular_1_" data-name="check-circle-regular (1)" d="M38.493,8A30.493,30.493,0,1,0,68.986,38.493,30.493,30.493,0,0,0,38.493,8Zm0,5.9A24.591,24.591,0,1,1,13.9,38.493,24.578,24.578,0,0,1,38.493,13.9" transform="translate(922 417)" fill="#d6001c"/>
    <path id="exclamation-solid" d="M25.9,26.718a4.948,4.948,0,1,1-4.948-4.948A4.953,4.953,0,0,1,25.9,26.718ZM16.573,1.558l.841,16.822a1.484,1.484,0,0,0,1.482,1.41H23a1.484,1.484,0,0,0,1.482-1.41l.841-16.822A1.484,1.484,0,0,0,23.84,0H18.055A1.484,1.484,0,0,0,16.573,1.558Z" transform="translate(939.545 440)" fill="#d6001c"/>
  </g>
</svg>
