<svg xmlns="http://www.w3.org/2000/svg" xmlns:xlink="http://www.w3.org/1999/xlink" width="66" height="66" viewBox="0 0 66 66">
  <defs>
    <clipPath id="clip-Logo_FTX">
      <rect width="66" height="66"/>
    </clipPath>
  </defs>
  <g id="Logo_FTX" data-name="Logo – FTX" clip-path="url(#clip-Logo_FTX)">
    <rect width="66" height="66" fill="#fff"/>
    <g id="Grupo_8714" data-name="Grupo 8714" transform="translate(8666.021 -16516.979)">
      <circle id="Elipse_56" data-name="Elipse 56" cx="30" cy="30" r="30" transform="translate(-8663.021 16519.979)" fill="#d6001c"/>
      <g id="Grupo_8067" data-name="Grupo 8067" transform="translate(-8654.141 16535.092)">
        <path id="Trazado_2268" data-name="Trazado 2268" d="M240.264,27.166V24.245a.262.262,0,0,0-.26-.26h-3.711a.26.26,0,0,1-.26-.26V18.61a.26.26,0,0,0-.26-.26h-2.946a.262.262,0,0,0-.26.26v5.115a.258.258,0,0,1-.26.26H228.75a.262.262,0,0,0-.26.26v2.939a.26.26,0,0,0,.26.26h3.557a.258.258,0,0,1,.26.26V44.536a.26.26,0,0,0,.262.26l2.951-.027a.26.26,0,0,0,.258-.26V27.686a.26.26,0,0,1,.256-.26H240a.262.262,0,0,0,.26-.26" transform="translate(-216.203 -14.847)" fill="#fff"/>
        <path id="Trazado_2269" data-name="Trazado 2269" d="M14.859,2.866a8.328,8.328,0,0,0-3.887.981C9,4.962,7.379,6.7,6.791,10.6a6.446,6.446,0,0,0-.041,1.244.174.174,0,0,1-.172.181h-2a.26.26,0,0,0-.26.26V15.18a.26.26,0,0,0,.258.26l2.035.025a.174.174,0,0,1,.172.174V32.6a.258.258,0,0,0,.26.26H9.939a.26.26,0,0,0,.26-.26V15.673a.172.172,0,0,1,.174-.174h4.5a.262.262,0,0,0,.26-.26V12.3a.26.26,0,0,0-.26-.271H10.434a.174.174,0,0,1-.172-.174V10.2A5.006,5.006,0,0,1,14.88,6.355a.258.258,0,0,0,.246-.258c0-.97.025-1.872,0-2.982a.258.258,0,0,0-.271-.256" transform="translate(-4.32 -2.858)" fill="#fff"/>
        <path id="Trazado_2270" data-name="Trazado 2270" d="M352.308,63.832l-6.32-10.01a.177.177,0,0,1,0-.188L352.3,43.81a.26.26,0,0,0-.226-.4h-3.4a.26.26,0,0,0-.226.12l-4.323,6.8a.176.176,0,0,1-.3,0l-4.332-6.8a.258.258,0,0,0-.226-.12h-3.4a.26.26,0,0,0-.226.4l6.313,9.825a.177.177,0,0,1,0,.188l-6.318,10.01a.26.26,0,0,0,.226.4h3.441a.258.258,0,0,0,.226-.122l4.3-6.831a.176.176,0,0,1,.3,0l4.3,6.831a.258.258,0,0,0,.226.122h3.441a.262.262,0,0,0,.226-.4" transform="translate(-310.067 -34.24)" fill="#fff"/>
      </g>
    </g>
  </g>
</svg>
