<svg xmlns="http://www.w3.org/2000/svg" xmlns:xlink="http://www.w3.org/1999/xlink" width="200" height="66" viewBox="0 0 200 66">
  <defs>
    <clipPath id="clip-Logo_">
      <rect width="200" height="66"/>
    </clipPath>
  </defs>
  <g id="Logo_" data-name="Logo " clip-path="url(#clip-Logo_)">
    <rect width="200" height="66" fill="#fff"/>
    <g id="finotex_logo" transform="translate(0 0.031)">
      <path id="Trazado_2256" data-name="Trazado 2256" d="M68.919,18.35H62.554a.573.573,0,0,0-.554.578v7.71a.573.573,0,0,0,.563.578h6.356a.578.578,0,0,0,.568-.578v-7.71a.578.578,0,0,0-.568-.578" transform="translate(-33.492 -10.725)" fill="#d6001c"/>
      <path id="Trazado_2257" data-name="Trazado 2257" d="M68.919,43.41H62.554a.563.563,0,0,0-.554.568V88.356a.563.563,0,0,0,.563.568h6.356a.568.568,0,0,0,.568-.568V43.978a.568.568,0,0,0-.568-.568" transform="translate(-33.492 -23.399)" fill="#d6001c"/>
      <path id="Trazado_2258" data-name="Trazado 2258" d="M118.876,45.293v-.03a8.514,8.514,0,0,0-7.671-2.16h-.079c-2.965.944-4.448,2.031-6.242,5.511l-.03.059c-1.3,3.41-3.46,8.12-6.04,13.868a.376.376,0,0,1-.722-.153V43.682a.573.573,0,0,0-.573-.573H91.193a.573.573,0,0,0-.573.573V88.055a.573.573,0,0,0,.573.573H95.75a.578.578,0,0,0,.494-.336c7.908-17.546,14.985-34.36,14.985-34.36.727-1.715,2.471-1.893,2.545.153,0,0,.064,23.936.064,33.969a.573.573,0,0,0,.573.573h6.1a.573.573,0,0,0,.573-.573V50.325a.376.376,0,0,0,0-.074,7.577,7.577,0,0,0-2.219-4.942" transform="translate(-47.967 -23.167)" fill="#d6001c"/>
      <path id="Trazado_2259" data-name="Trazado 2259" d="M254.225,37.62V31.235a.573.573,0,0,0-.568-.568h-8.111a.568.568,0,0,1-.568-.568V18.918a.568.568,0,0,0-.568-.568h-6.44a.573.573,0,0,0-.568.568V30.1a.563.563,0,0,1-.568.568h-7.774a.573.573,0,0,0-.568.568V37.66a.568.568,0,0,0,.568.568h7.774a.563.563,0,0,1,.568.568V75.588a.568.568,0,0,0,.573.568l6.45-.059a.568.568,0,0,0,.563-.568V38.757a.568.568,0,0,1,.559-.568h8.1a.573.573,0,0,0,.568-.568" transform="translate(-117.696 -10.725)" fill="#d6001c"/>
      <path id="Trazado_2260" data-name="Trazado 2260" d="M27.357,2.874a18.2,18.2,0,0,0-8.5,2.145c-4.32,2.437-7.853,6.232-9.139,14.768a14.091,14.091,0,0,0-.089,2.718.381.381,0,0,1-.376.4H4.888a.568.568,0,0,0-.568.568V29.79a.568.568,0,0,0,.563.568l4.448.054a.381.381,0,0,1,.376.381V67.862a.563.563,0,0,0,.568.568H16.6a.568.568,0,0,0,.568-.568V30.868a.376.376,0,0,1,.381-.381h9.84a.573.573,0,0,0,.568-.568V23.494a.568.568,0,0,0-.568-.593H17.684a.381.381,0,0,1-.376-.381V18.9c.455-3.46,4.419-8.106,10.092-8.4a.563.563,0,0,0,.539-.563c0-2.12.054-4.092,0-6.519a.563.563,0,0,0-.593-.558" transform="translate(-4.32 -2.89)" fill="#d6001c"/>
      <path id="Trazado_2261" data-name="Trazado 2261" d="M372.124,88.05,358.31,66.17a.385.385,0,0,1,0-.41l13.8-21.475a.568.568,0,0,0-.494-.875h-7.433a.568.568,0,0,0-.494.262l-9.45,14.857a.386.386,0,0,1-.647,0l-9.47-14.857a.563.563,0,0,0-.494-.262h-7.433a.568.568,0,0,0-.494.875l13.8,21.475a.385.385,0,0,1,0,.41L335.688,88.05a.568.568,0,0,0,.494.875H343.7a.563.563,0,0,0,.494-.267l9.391-14.931a.386.386,0,0,1,.647,0l9.391,14.931a.563.563,0,0,0,.494.267h7.522a.573.573,0,0,0,.494-.875" transform="translate(-171.867 -23.399)" fill="#d6001c"/>
      <path id="Trazado_2262" data-name="Trazado 2262" d="M176.834,89.664a14.368,14.368,0,0,1-11.57-5.9c-3.85-5.15-4.7-12.7-2.338-20.7,1.018-3.46,2.659-7.952,5.61-11.111a.652.652,0,0,0-.465-1.112h-5.056a.657.657,0,0,1-.6-.909l2.417-5.822a1.315,1.315,0,0,1,1.211-.811h9.109a3.89,3.89,0,0,1,3.227,1.611,3.771,3.771,0,0,1-.43,4.834A60.483,60.483,0,0,0,170.161,65.2c-1.685,5.7-1.265,10.829,1.147,14.051a6.717,6.717,0,0,0,5.526,2.872,9.223,9.223,0,0,0,6.381-3.134c3.41-3.489,5.367-8.98,5.234-14.689-.138-5.881-2.521-9.84-7.468-12.356a1.3,1.3,0,0,1-.6-1.685l1.977-4.512a1.315,1.315,0,0,1,1.794-.652c7.552,3.761,11.644,10.32,11.862,19.043.183,7.7-2.575,15.218-7.374,20.13a16.629,16.629,0,0,1-11.778,5.407" transform="translate(-83.872 -23.343)" fill="#d6001c"/>
      <path id="Trazado_2263" data-name="Trazado 2263" d="M287.431,81.8a6.242,6.242,0,0,1-4.4-2.684c-2.264-3.213-2.9-9.391-1.616-15.816,1.606-8.036,6.618-13.671,12.178-13.671a3.442,3.442,0,0,1,3.316,2.214,7.635,7.635,0,0,1-.46,7.285,18.42,18.42,0,0,1-9.643,5.931,3.247,3.247,0,0,0-2.387,3.158v3.124c0,.959.494,1.384,1.043,1.31,5.595-.731,12.514-3.643,16.7-9.1a14.6,14.6,0,0,0,1.216-14.872,10.668,10.668,0,0,0-9.786-6.247c-9.045,0-16.962,8.007-19.275,19.473-1.7,8.486-.652,16.473,2.8,21.366a13.443,13.443,0,0,0,9.252,5.669,12.888,12.888,0,0,0,1.893.138c5.9,0,11.323-3.825,13.606-5.679A1.31,1.31,0,0,0,302,81.49l-2.728-2.965a1.977,1.977,0,0,0-2.615-.227c-2.229,1.661-6.114,3.954-9.247,3.494" transform="translate(-140.468 -22.904)" fill="#d6001c"/>
    </g>
  </g>
</svg>
