<svg xmlns="http://www.w3.org/2000/svg" xmlns:xlink="http://www.w3.org/1999/xlink" width="21" height="22" viewBox="0 0 21 22">
  <defs>
    <clipPath id="clip-Pin_red">
      <rect width="21" height="22"/>
    </clipPath>
  </defs>
  <g id="Pin_red" data-name="Pin red" clip-path="url(#clip-Pin_red)">
    <path id="Path_5183" data-name="Path 5183" d="M12,20.9l4.95-4.95a7,7,0,1,0-9.9,0Zm0,2.828L5.636,17.364a9,9,0,1,1,12.728,0ZM12,13a2,2,0,1,0-2-2A2,2,0,0,0,12,13Zm0,2a4,4,0,1,1,4-4A4,4,0,0,1,12,15Z" transform="translate(-1.5 -2)" fill="#d6001c"/>
  </g>
</svg>
