<svg id="plus-solid" xmlns="http://www.w3.org/2000/svg" width="24.522" height="16.348" viewBox="0 0 24.522 16.348">
  <path id="eye-solid" d="M24.375,71.553A13.655,13.655,0,0,0,12.262,64,13.657,13.657,0,0,0,.149,71.553a1.377,1.377,0,0,0,0,1.243,13.655,13.655,0,0,0,12.113,7.553A13.657,13.657,0,0,0,24.375,72.8a1.377,1.377,0,0,0,0-1.243ZM12.262,78.3a6.131,6.131,0,1,1,6.131-6.131A6.131,6.131,0,0,1,12.262,78.3Zm0-10.218a4.058,4.058,0,0,0-1.078.161A2.037,2.037,0,0,1,8.336,71.1a4.078,4.078,0,1,0,3.926-3.01Z" transform="translate(-0.001 -64)" fill="#2b2a2a"/>
</svg>
