<svg xmlns="http://www.w3.org/2000/svg" width="21.496" height="20.393" viewBox="0 0 21.496 20.393">
  <g id="shopping-cart" transform="translate(1 1)">
    <g id="Grupo_8399" data-name="Grupo 8399" transform="translate(13.559 14.406)">
      <g id="Grupo_8398" data-name="Grupo 8398">
        <path id="Trazado_4586" data-name="Trazado 4586" d="M343.453,373.333a2.119,2.119,0,1,0,2.118,2.119A2.122,2.122,0,0,0,343.453,373.333Zm0,3.39a1.271,1.271,0,1,1,1.271-1.271A1.273,1.273,0,0,1,343.453,376.723Z" transform="translate(-341.334 -373.333)" fill="#2b2a2a" stroke="#2b2a2a" stroke-width="1.5"/>
      </g>
    </g>
    <g id="Grupo_8401" data-name="Grupo 8401" transform="translate(5.084 14.406)">
      <g id="Grupo_8400" data-name="Grupo 8400">
        <path id="Trazado_4587" data-name="Trazado 4587" d="M130.119,373.333a2.119,2.119,0,1,0,2.119,2.119A2.121,2.121,0,0,0,130.119,373.333Zm0,3.39a1.271,1.271,0,1,1,1.271-1.271A1.273,1.273,0,0,1,130.119,376.723Z" transform="translate(-128 -373.333)" fill="#2b2a2a" stroke="#2b2a2a" stroke-width="1.5"/>
      </g>
    </g>
    <g id="Grupo_8403" data-name="Grupo 8403">
      <g id="Grupo_8402" data-name="Grupo 8402">
        <path id="Trazado_4588" data-name="Trazado 4588" d="M17.372,23.377H7.592a2.124,2.124,0,0,1-2.077-1.7L3.381,11.007a.424.424,0,0,0-.415-.341H.424a.424.424,0,0,0,0,.847H2.619L4.684,21.841a2.974,2.974,0,0,0,2.908,2.384h9.78a.424.424,0,0,0,0-.847Z" transform="translate(0 -10.666)" fill="#2b2a2a" stroke="#2b2a2a" stroke-width="2"/>
      </g>
    </g>
    <g id="Grupo_8405" data-name="Grupo 8405" transform="translate(4.661 2.542)">
      <g id="Grupo_8404" data-name="Grupo 8404" transform="translate(0)">
        <path id="Trazado_4589" data-name="Trazado 4589" d="M101.523,74.758a.454.454,0,0,0-.347-.091H95.882a.424.424,0,1,0,0,.847H100.7l-.6,4.818a1.274,1.274,0,0,1-1.262,1.114H87.194a.424.424,0,1,0,0,.847H98.833a2.122,2.122,0,0,0,2.1-1.856l.662-5.295A.534.534,0,0,0,101.523,74.758Z" transform="translate(-86.77 -74.667)" fill="#2b2a2a" stroke="#2b2a2a" stroke-width="2"/>
      </g>
    </g>
  </g>
</svg>
