<svg xmlns="http://www.w3.org/2000/svg" xmlns:xlink="http://www.w3.org/1999/xlink" width="64" height="64" viewBox="0 0 64 64">
  <defs>
    <clipPath id="clip-success">
      <rect width="64" height="64"/>
    </clipPath>
  </defs>
  <g id="success" clip-path="url(#clip-success)">
    <rect width="64" height="64" fill="#fff"/>
    <path id="check-circle-regular_1_" data-name="check-circle-regular (1)" d="M38.493,8A30.493,30.493,0,1,0,68.986,38.493,30.493,30.493,0,0,0,38.493,8Zm0,5.9A24.591,24.591,0,1,1,13.9,38.493,24.578,24.578,0,0,1,38.493,13.9M55.732,29.919l-2.771-2.793a1.475,1.475,0,0,0-2.087-.008l-17.38,17.24-7.352-7.411a1.475,1.475,0,0,0-2.087-.008l-2.793,2.771a1.475,1.475,0,0,0-.008,2.087L32.416,53.048a1.475,1.475,0,0,0,2.087.008l21.221-21.05a1.476,1.476,0,0,0,.008-2.087Z" transform="translate(-6.001 -6)" fill="#2b2a2a"/>
  </g>
</svg>
