<svg xmlns="http://www.w3.org/2000/svg" width="20.268" height="23.163" viewBox="0 0 20.268 23.163">
  <path id="trash-alt-solid" d="M18.82,20.991a2.172,2.172,0,0,1-2.172,2.172H3.619a2.172,2.172,0,0,1-2.172-2.172V5.791H18.82ZM6.515,9.41a.724.724,0,1,0-1.448,0V19.544a.724.724,0,1,0,1.448,0Zm4.343,0a.724.724,0,0,0-1.448,0V19.544a.724.724,0,0,0,1.448,0Zm4.343,0a.724.724,0,1,0-1.448,0V19.544a.724.724,0,1,0,1.448,0ZM.724,1.448H6.153L6.578.6A1.086,1.086,0,0,1,7.551,0h5.171a1.073,1.073,0,0,1,.968.6l.425.846h5.429a.724.724,0,0,1,.724.724V3.619a.724.724,0,0,1-.724.724H.724A.724.724,0,0,1,0,3.619V2.171A.724.724,0,0,1,.724,1.448Z" transform="translate(0 0)" fill="#2b2a2a"/>
</svg>
