<svg xmlns="http://www.w3.org/2000/svg" xmlns:xlink="http://www.w3.org/1999/xlink" width="24" height="24" viewBox="0 0 24 24">
  <defs>
    <clipPath id="clip-Trun_Rigth">
      <rect width="24" height="24"/>
    </clipPath>
  </defs>
  <g id="Trun_Rigth" data-name="Trun Rigth" clip-path="url(#clip-Trun_Rigth)">
    <path id="Trazado_4758" data-name="Trazado 4758" d="M20,10.586l1.828-1.829,1.415,1.415L19,14.414l-4.243-4.242,1.415-1.415L18,10.586V8a3,3,0,0,0-3-3H11V3h4a5,5,0,0,1,5,5ZM13,9a1,1,0,0,1,1,1V20a1,1,0,0,1-1,1H3a1,1,0,0,1-1-1V10A1,1,0,0,1,3,9Zm-1,2H4v8h8Z" transform="translate(0.757 0.5)" fill="#2b2a2a"/>
  </g>
</svg>
